<mxfile host="app.diagrams.net" agent="Mozilla/5.0 (Macintosh; Intel Mac OS X 10_15_7) AppleWebKit/537.36 (KHTML, like Gecko) Chrome/129.0.0.0 Safari/537.36" version="24.8.0">
  <diagram name="Page-1" id="_WU2Up_6wdsQ1vX0vqla">
    <mxGraphModel dx="2057" dy="765" grid="1" gridSize="10" guides="1" tooltips="1" connect="1" arrows="1" fold="1" page="1" pageScale="1" pageWidth="850" pageHeight="1100" math="0" shadow="0">
      <root>
        <mxCell id="0" />
        <mxCell id="1" parent="0" />
        <mxCell id="3Gt3xNcv31haKzNgGR7U-12" style="edgeStyle=orthogonalEdgeStyle;rounded=0;orthogonalLoop=1;jettySize=auto;html=1;entryX=1;entryY=0.5;entryDx=0;entryDy=0;" edge="1" parent="1" source="3Gt3xNcv31haKzNgGR7U-1" target="3Gt3xNcv31haKzNgGR7U-10">
          <mxGeometry relative="1" as="geometry" />
        </mxCell>
        <mxCell id="3Gt3xNcv31haKzNgGR7U-1" value="Recommendation service" style="rounded=0;whiteSpace=wrap;html=1;" vertex="1" parent="1">
          <mxGeometry x="200" y="100" width="120" height="60" as="geometry" />
        </mxCell>
        <mxCell id="3Gt3xNcv31haKzNgGR7U-52" style="edgeStyle=orthogonalEdgeStyle;rounded=0;orthogonalLoop=1;jettySize=auto;html=1;entryX=0.5;entryY=1;entryDx=0;entryDy=0;" edge="1" parent="1" source="3Gt3xNcv31haKzNgGR7U-2" target="3Gt3xNcv31haKzNgGR7U-1">
          <mxGeometry relative="1" as="geometry" />
        </mxCell>
        <mxCell id="3Gt3xNcv31haKzNgGR7U-2" value="Search Service" style="rounded=0;whiteSpace=wrap;html=1;" vertex="1" parent="1">
          <mxGeometry x="200" y="210" width="120" height="60" as="geometry" />
        </mxCell>
        <mxCell id="3Gt3xNcv31haKzNgGR7U-28" style="edgeStyle=orthogonalEdgeStyle;rounded=0;orthogonalLoop=1;jettySize=auto;html=1;entryX=1;entryY=0.5;entryDx=0;entryDy=0;" edge="1" parent="1" source="3Gt3xNcv31haKzNgGR7U-3" target="3Gt3xNcv31haKzNgGR7U-1">
          <mxGeometry relative="1" as="geometry">
            <Array as="points">
              <mxPoint x="260" y="300" />
              <mxPoint x="340" y="300" />
              <mxPoint x="340" y="130" />
            </Array>
          </mxGeometry>
        </mxCell>
        <mxCell id="3Gt3xNcv31haKzNgGR7U-3" value="User Service" style="rounded=0;whiteSpace=wrap;html=1;" vertex="1" parent="1">
          <mxGeometry x="200" y="330" width="120" height="60" as="geometry" />
        </mxCell>
        <mxCell id="3Gt3xNcv31haKzNgGR7U-4" value="Cart Service" style="rounded=0;whiteSpace=wrap;html=1;" vertex="1" parent="1">
          <mxGeometry x="200" y="440" width="120" height="60" as="geometry" />
        </mxCell>
        <mxCell id="3Gt3xNcv31haKzNgGR7U-44" style="edgeStyle=orthogonalEdgeStyle;rounded=0;orthogonalLoop=1;jettySize=auto;html=1;entryX=0;entryY=0.5;entryDx=0;entryDy=0;exitX=0.5;exitY=1;exitDx=0;exitDy=0;" edge="1" parent="1" source="3Gt3xNcv31haKzNgGR7U-5" target="3Gt3xNcv31haKzNgGR7U-43">
          <mxGeometry relative="1" as="geometry" />
        </mxCell>
        <mxCell id="3Gt3xNcv31haKzNgGR7U-5" value="Order Service" style="rounded=0;whiteSpace=wrap;html=1;" vertex="1" parent="1">
          <mxGeometry x="200" y="550" width="120" height="60" as="geometry" />
        </mxCell>
        <mxCell id="3Gt3xNcv31haKzNgGR7U-55" style="edgeStyle=orthogonalEdgeStyle;rounded=0;orthogonalLoop=1;jettySize=auto;html=1;exitX=0.75;exitY=0;exitDx=0;exitDy=0;entryX=1;entryY=0.5;entryDx=0;entryDy=0;" edge="1" parent="1" source="3Gt3xNcv31haKzNgGR7U-6" target="3Gt3xNcv31haKzNgGR7U-2">
          <mxGeometry relative="1" as="geometry">
            <Array as="points">
              <mxPoint x="810" y="490" />
              <mxPoint x="810" y="310" />
              <mxPoint x="500" y="310" />
              <mxPoint x="500" y="240" />
            </Array>
          </mxGeometry>
        </mxCell>
        <mxCell id="3Gt3xNcv31haKzNgGR7U-56" style="edgeStyle=orthogonalEdgeStyle;rounded=0;orthogonalLoop=1;jettySize=auto;html=1;entryX=1;entryY=0.75;entryDx=0;entryDy=0;" edge="1" parent="1" source="3Gt3xNcv31haKzNgGR7U-6" target="3Gt3xNcv31haKzNgGR7U-3">
          <mxGeometry relative="1" as="geometry">
            <Array as="points">
              <mxPoint x="700" y="560" />
              <mxPoint x="420" y="560" />
              <mxPoint x="420" y="480" />
              <mxPoint x="370" y="480" />
              <mxPoint x="370" y="375" />
            </Array>
          </mxGeometry>
        </mxCell>
        <mxCell id="3Gt3xNcv31haKzNgGR7U-6" value="Logistics Service" style="rounded=0;whiteSpace=wrap;html=1;" vertex="1" parent="1">
          <mxGeometry x="640" y="460" width="120" height="60" as="geometry" />
        </mxCell>
        <mxCell id="3Gt3xNcv31haKzNgGR7U-23" style="edgeStyle=orthogonalEdgeStyle;rounded=0;orthogonalLoop=1;jettySize=auto;html=1;" edge="1" parent="1" source="3Gt3xNcv31haKzNgGR7U-7" target="3Gt3xNcv31haKzNgGR7U-18">
          <mxGeometry relative="1" as="geometry" />
        </mxCell>
        <mxCell id="3Gt3xNcv31haKzNgGR7U-7" value="Notification Service" style="rounded=0;whiteSpace=wrap;html=1;" vertex="1" parent="1">
          <mxGeometry x="640" y="600" width="120" height="60" as="geometry" />
        </mxCell>
        <mxCell id="3Gt3xNcv31haKzNgGR7U-26" style="edgeStyle=orthogonalEdgeStyle;rounded=0;orthogonalLoop=1;jettySize=auto;html=1;entryX=1;entryY=0.5;entryDx=0;entryDy=0;" edge="1" parent="1" source="3Gt3xNcv31haKzNgGR7U-8" target="3Gt3xNcv31haKzNgGR7U-1">
          <mxGeometry relative="1" as="geometry">
            <Array as="points">
              <mxPoint x="700" y="130" />
            </Array>
          </mxGeometry>
        </mxCell>
        <mxCell id="3Gt3xNcv31haKzNgGR7U-53" style="edgeStyle=orthogonalEdgeStyle;rounded=0;orthogonalLoop=1;jettySize=auto;html=1;entryX=1;entryY=0.5;entryDx=0;entryDy=0;" edge="1" parent="1" source="3Gt3xNcv31haKzNgGR7U-8" target="3Gt3xNcv31haKzNgGR7U-2">
          <mxGeometry relative="1" as="geometry">
            <Array as="points">
              <mxPoint x="570" y="240" />
              <mxPoint x="570" y="240" />
            </Array>
          </mxGeometry>
        </mxCell>
        <mxCell id="3Gt3xNcv31haKzNgGR7U-8" value="Product Service" style="rounded=0;whiteSpace=wrap;html=1;" vertex="1" parent="1">
          <mxGeometry x="640" y="220" width="120" height="60" as="geometry" />
        </mxCell>
        <mxCell id="3Gt3xNcv31haKzNgGR7U-25" style="edgeStyle=orthogonalEdgeStyle;rounded=0;orthogonalLoop=1;jettySize=auto;html=1;entryX=0.5;entryY=1;entryDx=0;entryDy=0;" edge="1" parent="1" source="3Gt3xNcv31haKzNgGR7U-9" target="3Gt3xNcv31haKzNgGR7U-8">
          <mxGeometry relative="1" as="geometry" />
        </mxCell>
        <mxCell id="3Gt3xNcv31haKzNgGR7U-9" value="Seller Service" style="rounded=0;whiteSpace=wrap;html=1;" vertex="1" parent="1">
          <mxGeometry x="640" y="370" width="120" height="60" as="geometry" />
        </mxCell>
        <mxCell id="3Gt3xNcv31haKzNgGR7U-13" style="edgeStyle=orthogonalEdgeStyle;rounded=0;orthogonalLoop=1;jettySize=auto;html=1;entryX=0;entryY=0.5;entryDx=0;entryDy=0;" edge="1" parent="1" source="3Gt3xNcv31haKzNgGR7U-10" target="3Gt3xNcv31haKzNgGR7U-2">
          <mxGeometry relative="1" as="geometry" />
        </mxCell>
        <mxCell id="3Gt3xNcv31haKzNgGR7U-10" value="User Search Flow" style="shape=process;whiteSpace=wrap;html=1;backgroundOutline=1;" vertex="1" parent="1">
          <mxGeometry x="-10" y="160" width="120" height="60" as="geometry" />
        </mxCell>
        <mxCell id="3Gt3xNcv31haKzNgGR7U-16" style="edgeStyle=orthogonalEdgeStyle;rounded=0;orthogonalLoop=1;jettySize=auto;html=1;entryX=0;entryY=0.5;entryDx=0;entryDy=0;" edge="1" parent="1" source="3Gt3xNcv31haKzNgGR7U-11" target="3Gt3xNcv31haKzNgGR7U-4">
          <mxGeometry relative="1" as="geometry" />
        </mxCell>
        <mxCell id="3Gt3xNcv31haKzNgGR7U-17" style="edgeStyle=orthogonalEdgeStyle;rounded=0;orthogonalLoop=1;jettySize=auto;html=1;entryX=0;entryY=0.5;entryDx=0;entryDy=0;" edge="1" parent="1" source="3Gt3xNcv31haKzNgGR7U-11" target="3Gt3xNcv31haKzNgGR7U-5">
          <mxGeometry relative="1" as="geometry" />
        </mxCell>
        <mxCell id="3Gt3xNcv31haKzNgGR7U-11" value="User Purchase Flow" style="shape=process;whiteSpace=wrap;html=1;backgroundOutline=1;" vertex="1" parent="1">
          <mxGeometry x="-20" y="470" width="120" height="60" as="geometry" />
        </mxCell>
        <mxCell id="3Gt3xNcv31haKzNgGR7U-15" style="edgeStyle=orthogonalEdgeStyle;rounded=0;orthogonalLoop=1;jettySize=auto;html=1;entryX=0;entryY=0.5;entryDx=0;entryDy=0;" edge="1" parent="1" source="3Gt3xNcv31haKzNgGR7U-14" target="3Gt3xNcv31haKzNgGR7U-3">
          <mxGeometry relative="1" as="geometry" />
        </mxCell>
        <mxCell id="3Gt3xNcv31haKzNgGR7U-14" value="User Profile Flow" style="shape=process;whiteSpace=wrap;html=1;backgroundOutline=1;" vertex="1" parent="1">
          <mxGeometry x="-20" y="330" width="120" height="60" as="geometry" />
        </mxCell>
        <mxCell id="3Gt3xNcv31haKzNgGR7U-18" value="Actor" style="shape=umlActor;verticalLabelPosition=bottom;verticalAlign=top;html=1;outlineConnect=0;" vertex="1" parent="1">
          <mxGeometry x="-220" y="310" width="30" height="60" as="geometry" />
        </mxCell>
        <mxCell id="3Gt3xNcv31haKzNgGR7U-31" style="edgeStyle=orthogonalEdgeStyle;rounded=0;orthogonalLoop=1;jettySize=auto;html=1;entryX=1;entryY=0.5;entryDx=0;entryDy=0;exitX=1;exitY=0.5;exitDx=0;exitDy=0;exitPerimeter=0;" edge="1" parent="1" source="3Gt3xNcv31haKzNgGR7U-29" target="3Gt3xNcv31haKzNgGR7U-1">
          <mxGeometry relative="1" as="geometry">
            <Array as="points">
              <mxPoint x="510" y="320" />
              <mxPoint x="430" y="320" />
              <mxPoint x="430" y="130" />
            </Array>
          </mxGeometry>
        </mxCell>
        <mxCell id="3Gt3xNcv31haKzNgGR7U-34" style="edgeStyle=orthogonalEdgeStyle;rounded=0;orthogonalLoop=1;jettySize=auto;html=1;entryX=0;entryY=0.25;entryDx=0;entryDy=0;" edge="1" parent="1" source="3Gt3xNcv31haKzNgGR7U-29" target="3Gt3xNcv31haKzNgGR7U-6">
          <mxGeometry relative="1" as="geometry">
            <Array as="points">
              <mxPoint x="560" y="470" />
              <mxPoint x="560" y="505" />
            </Array>
          </mxGeometry>
        </mxCell>
        <mxCell id="3Gt3xNcv31haKzNgGR7U-35" style="edgeStyle=orthogonalEdgeStyle;rounded=0;orthogonalLoop=1;jettySize=auto;html=1;entryX=0;entryY=0.25;entryDx=0;entryDy=0;" edge="1" parent="1" source="3Gt3xNcv31haKzNgGR7U-29" target="3Gt3xNcv31haKzNgGR7U-7">
          <mxGeometry relative="1" as="geometry">
            <Array as="points">
              <mxPoint x="540" y="610" />
              <mxPoint x="640" y="610" />
            </Array>
          </mxGeometry>
        </mxCell>
        <mxCell id="3Gt3xNcv31haKzNgGR7U-54" style="edgeStyle=orthogonalEdgeStyle;rounded=0;orthogonalLoop=1;jettySize=auto;html=1;entryX=1;entryY=0.5;entryDx=0;entryDy=0;" edge="1" parent="1" source="3Gt3xNcv31haKzNgGR7U-29" target="3Gt3xNcv31haKzNgGR7U-2">
          <mxGeometry relative="1" as="geometry">
            <Array as="points">
              <mxPoint x="400" y="395" />
              <mxPoint x="400" y="240" />
            </Array>
          </mxGeometry>
        </mxCell>
        <mxCell id="3Gt3xNcv31haKzNgGR7U-57" style="edgeStyle=orthogonalEdgeStyle;rounded=0;orthogonalLoop=1;jettySize=auto;html=1;entryX=0;entryY=0.5;entryDx=0;entryDy=0;" edge="1" parent="1" source="3Gt3xNcv31haKzNgGR7U-29" target="3Gt3xNcv31haKzNgGR7U-8">
          <mxGeometry relative="1" as="geometry">
            <Array as="points">
              <mxPoint x="580" y="350" />
              <mxPoint x="580" y="250" />
            </Array>
          </mxGeometry>
        </mxCell>
        <mxCell id="3Gt3xNcv31haKzNgGR7U-60" style="edgeStyle=orthogonalEdgeStyle;rounded=0;orthogonalLoop=1;jettySize=auto;html=1;entryX=0;entryY=0.5;entryDx=0;entryDy=0;" edge="1" parent="1" source="3Gt3xNcv31haKzNgGR7U-29" target="3Gt3xNcv31haKzNgGR7U-9">
          <mxGeometry relative="1" as="geometry" />
        </mxCell>
        <mxCell id="3Gt3xNcv31haKzNgGR7U-29" value="Message Broker" style="shape=cylinder3;whiteSpace=wrap;html=1;boundedLbl=1;backgroundOutline=1;size=15;rotation=-90;" vertex="1" parent="1">
          <mxGeometry x="480" y="320" width="60" height="150" as="geometry" />
        </mxCell>
        <mxCell id="3Gt3xNcv31haKzNgGR7U-30" style="edgeStyle=orthogonalEdgeStyle;rounded=0;orthogonalLoop=1;jettySize=auto;html=1;entryX=0.5;entryY=0;entryDx=0;entryDy=0;entryPerimeter=0;" edge="1" parent="1" source="3Gt3xNcv31haKzNgGR7U-5" target="3Gt3xNcv31haKzNgGR7U-29">
          <mxGeometry relative="1" as="geometry" />
        </mxCell>
        <mxCell id="3Gt3xNcv31haKzNgGR7U-36" value="Products" style="shape=datastore;whiteSpace=wrap;html=1;" vertex="1" parent="1">
          <mxGeometry x="710" y="170" width="60" height="60" as="geometry" />
        </mxCell>
        <mxCell id="3Gt3xNcv31haKzNgGR7U-40" value="Carts" style="shape=datastore;whiteSpace=wrap;html=1;" vertex="1" parent="1">
          <mxGeometry x="290" y="400" width="60" height="60" as="geometry" />
        </mxCell>
        <mxCell id="3Gt3xNcv31haKzNgGR7U-41" value="Orders" style="shape=datastore;whiteSpace=wrap;html=1;" vertex="1" parent="1">
          <mxGeometry x="290" y="510" width="60" height="60" as="geometry" />
        </mxCell>
        <mxCell id="3Gt3xNcv31haKzNgGR7U-42" value="Users" style="shape=datastore;whiteSpace=wrap;html=1;" vertex="1" parent="1">
          <mxGeometry x="310" y="310" width="60" height="60" as="geometry" />
        </mxCell>
        <mxCell id="3Gt3xNcv31haKzNgGR7U-43" value="Payment Service" style="rounded=0;whiteSpace=wrap;html=1;" vertex="1" parent="1">
          <mxGeometry x="640" y="680" width="120" height="60" as="geometry" />
        </mxCell>
        <mxCell id="3Gt3xNcv31haKzNgGR7U-47" style="edgeStyle=orthogonalEdgeStyle;rounded=0;orthogonalLoop=1;jettySize=auto;html=1;entryX=0;entryY=0.5;entryDx=0;entryDy=0;" edge="1" parent="1" source="3Gt3xNcv31haKzNgGR7U-45" target="3Gt3xNcv31haKzNgGR7U-10">
          <mxGeometry relative="1" as="geometry" />
        </mxCell>
        <mxCell id="3Gt3xNcv31haKzNgGR7U-48" style="edgeStyle=orthogonalEdgeStyle;rounded=0;orthogonalLoop=1;jettySize=auto;html=1;entryX=0;entryY=0.5;entryDx=0;entryDy=0;" edge="1" parent="1" source="3Gt3xNcv31haKzNgGR7U-45" target="3Gt3xNcv31haKzNgGR7U-14">
          <mxGeometry relative="1" as="geometry" />
        </mxCell>
        <mxCell id="3Gt3xNcv31haKzNgGR7U-49" style="edgeStyle=orthogonalEdgeStyle;rounded=0;orthogonalLoop=1;jettySize=auto;html=1;entryX=0;entryY=0.5;entryDx=0;entryDy=0;" edge="1" parent="1" source="3Gt3xNcv31haKzNgGR7U-45" target="3Gt3xNcv31haKzNgGR7U-11">
          <mxGeometry relative="1" as="geometry" />
        </mxCell>
        <mxCell id="3Gt3xNcv31haKzNgGR7U-45" value="API Gateway + Load Balancer" style="rounded=0;whiteSpace=wrap;html=1;" vertex="1" parent="1">
          <mxGeometry x="-130" y="140" width="60" height="410" as="geometry" />
        </mxCell>
        <mxCell id="3Gt3xNcv31haKzNgGR7U-46" style="edgeStyle=orthogonalEdgeStyle;rounded=0;orthogonalLoop=1;jettySize=auto;html=1;entryX=-0.017;entryY=0.478;entryDx=0;entryDy=0;entryPerimeter=0;" edge="1" parent="1" source="3Gt3xNcv31haKzNgGR7U-18" target="3Gt3xNcv31haKzNgGR7U-45">
          <mxGeometry relative="1" as="geometry" />
        </mxCell>
        <mxCell id="3Gt3xNcv31haKzNgGR7U-50" value="Recommendations" style="shape=datastore;whiteSpace=wrap;html=1;" vertex="1" parent="1">
          <mxGeometry x="300" y="50" width="60" height="60" as="geometry" />
        </mxCell>
      </root>
    </mxGraphModel>
  </diagram>
</mxfile>
